<svg width="24" height="24" fill="currentColor" viewBox="0 0 24 24" xmlns="http://www.w3.org/2000/svg">
  <path fill-rule="evenodd" d="M7.92 16.68a.6.6 0 0 1 .6-.6h10.8a.6.6 0 1 1 0 1.2H8.52a.6.6 0 0 1-.6-.6Zm0-4.8a.6.6 0 0 1 .6-.6h10.8a.6.6 0 1 1 0 1.2H8.52a.6.6 0 0 1-.6-.6Zm0-4.8a.6.6 0 0 1 .6-.6h10.8a.6.6 0 1 1 0 1.2H8.52a.6.6 0 0 1-.6-.6Z" clip-rule="evenodd"></path>
  <path d="M3.976 17.118v-.569h.344c.26 0 .436-.164.436-.38 0-.222-.19-.372-.433-.372-.268 0-.44.182-.448.372h-.708c.02-.56.448-.945 1.183-.945.706-.002 1.145.35 1.149.844a.714.714 0 0 1-.59.713v.04a.738.738 0 0 1 .682.756c.004.64-.602.96-1.261.96-.787 0-1.2-.444-1.21-.952h.699c.01.213.223.367.506.37.305 0 .509-.173.506-.42-.002-.233-.186-.417-.496-.417h-.36Zm-.005-5.639h-.725v-.042c0-.49.354-1.013 1.15-1.013.7 0 1.152.391 1.152.907 0 .467-.309.74-.571 1.018l-.645.686v.036h1.265v.609H3.292v-.474l1.148-1.188c.166-.17.352-.365.352-.61 0-.216-.177-.384-.41-.384a.396.396 0 0 0-.411.406v.05Zm1.026-2.6h-.762V6.39h-.037l-.718.504v-.68l.755-.532h.762V8.88Z"></path>
</svg>